<svg width="500" height="500" viewBox="0 0 500 500" fill="none" xmlns="http://www.w3.org/2000/svg">
<rect width="500" height="500" rx="16" fill="white"/>
<path d="M250 312.5C284.518 312.5 312.5 284.518 312.5 250C312.5 215.482 284.518 187.5 250 187.5C215.482 187.5 187.5 215.482 187.5 250C187.5 284.518 215.482 312.5 250 312.5Z" stroke="#1C274C" stroke-width="4"/>
<path d="M271.336 243.381C276.221 246.266 276.221 253.734 271.336 256.619L241.834 274.036C237.086 276.84 231.25 273.191 231.25 267.418V232.582C231.25 226.809 237.086 223.16 241.834 225.964L271.336 243.381Z" stroke="#1C274C" stroke-width="4"/>
<path d="M394 250C394 329.529 329.529 394 250 394C170.471 394 106 329.529 106 250C106 170.471 170.471 106 250 106C329.529 106 394 170.471 394 250Z" stroke="#333333" stroke-width="12"/>
</svg>
